HIERARCHY
ROOT butt
{
	OFFSET 0.000000 0.000000 0.000000
	CHANNELS 6 Xposition Yposition Zposition Xrotation Yrotation Zrotation
	JOINT lhip
	{
		OFFSET 0.583813 0.718669 -0.323938
		CHANNELS 6 Xposition Yposition Zposition Xrotation Yrotation Zrotation
		JOINT lknee
		{
			OFFSET 0.553245 0.216339 -1.020714
			CHANNELS 6 Xposition Yposition Zposition Xrotation Yrotation Zrotation
			JOINT lankle
			{
				OFFSET -0.339279 0.080945 -1.465530
				CHANNELS 6 Xposition Yposition Zposition Xrotation Yrotation Zrotation
				End Site
				{
					OFFSET 0.537810 -0.043777 -0.195635
				}
			}
		}
	}
	JOINT rhip
	{
		OFFSET 0.339136 -0.940503 -0.149914
		CHANNELS 6 Xposition Yposition Zposition Xrotation Yrotation Zrotation
		JOINT rknee
		{
			OFFSET 0.601234 -0.223249 -1.073499
			CHANNELS 6 Xposition Yposition Zposition Xrotation Yrotation Zrotation
			JOINT rankle
			{
				OFFSET -0.245263 -0.041399 -1.532960
				CHANNELS 6 Xposition Yposition Zposition Xrotation Yrotation Zrotation
				End Site
				{
					OFFSET 0.653910 0.024899 -0.232875
				}
			}
		}
	}
	JOINT abdomen
	{
		OFFSET 0.907647 0.026340 0.317664
		CHANNELS 6 Xposition Yposition Zposition Xrotation Yrotation Zrotation
		JOINT neck
		{
			OFFSET 1.496963 0.039292 -0.038456
			CHANNELS 6 Xposition Yposition Zposition Xrotation Yrotation Zrotation
			End Site
			{
				OFFSET 2.739308 -0.092250 1.009232
			}
		}
		JOINT lshldr
		{
			OFFSET 1.132326 0.559775 -0.444207
			CHANNELS 6 Xposition Yposition Zposition Xrotation Yrotation Zrotation
			JOINT lelbow
			{
				OFFSET -0.149559 0.286290 -0.912030
				CHANNELS 6 Xposition Yposition Zposition Xrotation Yrotation Zrotation
				JOINT lwrist
				{
					OFFSET 0.485181 -0.390159 0.265472
					CHANNELS 6 Xposition Yposition Zposition Xrotation Yrotation Zrotation
					End Site
					{
						OFFSET 0.527290 -0.521758 -0.124363
					}
				}
			}
		}
		JOINT rshldr
		{
			OFFSET 1.100885 -0.503887 -0.296241
			CHANNELS 6 Xposition Yposition Zposition Xrotation Yrotation Zrotation
			JOINT relbow
			{
				OFFSET -0.198937 -0.642069 -0.689888
				CHANNELS 6 Xposition Yposition Zposition Xrotation Yrotation Zrotation
				JOINT rwrist
				{
					OFFSET 0.636091 0.394674 0.001069
					CHANNELS 6 Xposition Yposition Zposition Xrotation Yrotation Zrotation
					End Site
					{
						OFFSET 0.557086 0.133476 -0.377524
					}
				}
			}
		}
	}
}
MOTION
Frames: 11
Frame Time: 0.033333
0.003052 5.803403 -1.885435 -171.952499 2.424383 -3.581892 0.583813 0.718668 -0.323938 36.335476 -5.783222 -2.045308 0.553245 0.216339 -1.020715 9.264568 -1.470213 19.506773 -0.339279 0.080945 -1.465530 0.000001 0.000003 -0.000001 0.339136 -0.940504 -0.149914 53.666477 21.905602 -2.257519 0.601234 -0.223249 -1.073499 -7.303587 -4.967476 -0.914801 -0.245263 -0.041399 -1.532960 0.000005 -0.000001 -0.000000 0.907647 0.026339 0.317664 -0.582333 12.798346 -2.493926 1.496963 0.039293 -0.038455 -14.818784 23.551071 42.827212 1.132326 0.559775 -0.444206 0.000000 0.000001 0.000001 -0.149559 0.286289 -0.912030 -0.000002 0.000000 -0.000002 0.485181 -0.390159 0.265472 -0.000004 0.000000 0.000003 1.100885 -0.503887 -0.296241 0.000000 0.000002 0.000002 -0.198937 -0.642069 -0.689889 0.000003 -0.000005 -0.000000 0.636092 0.394675 0.001069 -0.000002 -0.000001 -0.000000 
0.003574 5.746995 -1.887782 -168.484634 2.633619 -4.112108 0.583813 0.718669 -0.323938 33.676579 -5.439719 -1.127203 0.553245 0.216339 -1.020714 11.813426 1.576079 20.408692 -0.339279 0.080945 -1.465530 0.000001 0.000002 -0.000005 0.339136 -0.940503 -0.149914 54.563311 23.671491 -2.261944 0.601234 -0.223249 -1.073499 -7.392341 -4.131310 -0.874975 -0.245263 -0.041399 -1.532961 0.000000 0.000000 0.000001 0.907647 0.026340 0.317664 -0.560424 11.941186 -2.328062 1.496964 0.039292 -0.038456 -12.170698 23.320650 37.600693 1.132326 0.559775 -0.444207 -0.000001 -0.000001 0.000001 -0.149559 0.286290 -0.912030 0.000003 0.000000 0.000002 0.485180 -0.390158 0.265472 -0.000000 0.000003 -0.000003 1.100885 -0.503887 -0.296241 -0.000001 0.000001 -0.000000 -0.198936 -0.642069 -0.689888 0.000001 -0.000001 0.000002 0.636091 0.394674 0.001069 -0.000003 -0.000006 0.000003 
0.003605 5.680174 -1.889046 -164.885930 2.935595 -4.849009 0.583813 0.718668 -0.323938 30.787686 -5.189199 -0.208434 0.553245 0.216339 -1.020714 14.428554 4.974313 21.133068 -0.339279 0.080945 -1.465531 0.000002 0.000001 -0.000003 0.339136 -0.940503 -0.149914 55.443576 25.362308 -2.255164 0.601234 -0.223249 -1.073499 -7.487182 -3.251603 -0.816437 -0.245263 -0.041399 -1.532960 0.000007 -0.000003 0.000003 0.907647 0.026339 0.317664 -0.536754 11.107726 -2.166937 1.496963 0.039292 -0.038456 -9.495131 22.830029 31.875783 1.132326 0.559774 -0.444207 0.000001 0.000001 0.000000 -0.149559 0.286290 -0.912030 0.000002 0.000000 -0.000002 0.485181 -0.390159 0.265472 -0.000000 -0.000002 0.000003 1.100885 -0.503887 -0.296241 -0.000000 0.000001 -0.000000 -0.198937 -0.642069 -0.689889 0.000001 0.000003 -0.000000 0.636091 0.394674 0.001069 -0.000004 -0.000005 0.000001 
0.003285 5.604177 -1.889365 -161.163955 3.282975 -5.755862 0.583813 0.718669 -0.323938 27.707663 -5.048612 0.679787 0.553245 0.216339 -1.020714 17.083287 8.683897 21.623541 -0.339279 0.080945 -1.465530 0.000000 0.000001 -0.000001 0.339136 -0.940503 -0.149914 56.291687 26.950330 -2.241341 0.601234 -0.223249 -1.073498 -7.588473 -2.334109 -0.741089 -0.245263 -0.041399 -1.532960 0.000000 -0.000004 0.000000 0.907647 0.026340 0.317664 -0.511638 10.301145 -2.011084 1.496964 0.039292 -0.038456 -6.952258 22.072388 25.815772 1.132326 0.559775 -0.444207 0.000004 0.000003 0.000000 -0.149559 0.286290 -0.912030 0.000002 -0.000001 -0.000005 0.485181 -0.390159 0.265472 -0.000001 0.000002 -0.000005 1.100885 -0.503887 -0.296241 -0.000000 0.000004 0.000003 -0.198937 -0.642069 -0.689888 0.000001 0.000001 -0.000002 0.636091 0.394674 0.001069 -0.000004 -0.000003 -0.000001 
0.002644 5.520258 -1.888829 -157.327288 3.633091 -6.791447 0.583813 0.718669 -0.323938 24.479159 -5.026395 1.507930 0.553245 0.216339 -1.020714 19.766648 12.654835 21.830639 -0.339279 0.080945 -1.465531 0.000004 0.000003 0.000003 0.339136 -0.940503 -0.149914 57.090379 28.408830 -2.223661 0.601234 -0.223249 -1.073500 -7.696565 -1.384590 -0.650748 -0.245263 -0.041399 -1.532960 0.000004 -0.000004 -0.000000 0.907647 0.026340 0.317664 -0.198403 9.619348 -1.448443 1.496964 0.039292 -0.038456 -4.683412 21.079301 19.577101 1.132326 0.559775 -0.444207 -0.000001 0.000001 -0.000001 -0.149559 0.286290 -0.912030 -0.000003 0.000001 -0.000003 0.485181 -0.390159 0.265472 -0.000000 -0.000004 0.000001 1.100885 -0.503887 -0.296241 -0.000000 0.000004 -0.000000 -0.198937 -0.642070 -0.689888 0.000001 -0.000002 0.000002 0.636091 0.394674 0.001069 -0.000003 -0.000005 -0.000001 
0.001714 5.429678 -1.887529 -153.387020 3.949175 -7.910620 0.583813 0.718669 -0.323938 21.147802 -5.122432 2.249748 0.553245 0.216338 -1.020714 22.482643 16.829298 21.710412 -0.339279 0.080945 -1.465530 0.000000 -0.000001 -0.000003 0.339136 -0.940503 -0.149914 57.820884 29.711900 -2.204501 0.601234 -0.223249 -1.073499 -7.811769 -0.408785 -0.547211 -0.245262 -0.041399 -1.532960 0.000000 0.000006 0.000000 0.907647 0.026340 0.317664 0.630991 9.158769 -0.183450 1.496963 0.039292 -0.038456 -2.796833 19.915297 13.300182 1.132326 0.559775 -0.444207 -0.000001 0.000003 -0.000001 -0.149559 0.286290 -0.912030 -0.000003 -0.000005 -0.000001 0.485182 -0.390159 0.265472 0.000005 0.000004 -0.000004 1.100885 -0.503887 -0.296241 -0.000002 0.000003 -0.000000 -0.198937 -0.642069 -0.689888 -0.000001 0.000002 -0.000000 0.636091 0.394674 0.001069 -0.000003 -0.000003 -0.000001 
0.000532 5.333698 -1.885558 -149.357768 4.201631 -9.065161 0.583813 0.718669 -0.323937 17.761350 -5.328624 2.883907 0.553245 0.216339 -1.020714 25.248721 21.143259 21.222579 -0.339279 0.080945 -1.465530 0.000000 -0.000001 -0.000002 0.339136 -0.940504 -0.149913 58.463271 30.834332 -2.185475 0.601234 -0.223249 -1.073499 -7.934356 0.587520 -0.432215 -0.245263 -0.041399 -1.532961 0.000004 0.000002 0.000001 0.907647 0.026339 0.317665 1.882850 8.938919 1.616550 1.496964 0.039293 -0.038456 -1.358732 18.666837 7.104788 1.132326 0.559776 -0.444207 -0.000001 0.000001 0.000001 -0.149559 0.286290 -0.912030 0.000005 0.000000 -0.000003 0.485181 -0.390159 0.265472 -0.000002 0.000004 0.000003 1.100885 -0.503886 -0.296241 -0.000006 0.000005 0.000001 -0.198937 -0.642069 -0.689888 -0.000001 0.000000 -0.000000 0.636091 0.394674 0.001070 -0.000001 -0.000003 0.000001 
-0.000867 5.233569 -1.883007 -145.258084 4.369075 -10.205236 0.583813 0.718669 -0.323938 14.368823 -5.630127 3.395420 0.553245 0.216339 -1.020714 28.094059 25.528020 20.328660 -0.339279 0.080945 -1.465530 -0.000000 0.000003 -0.000002 0.339136 -0.940503 -0.149914 58.996975 31.751272 -2.167758 0.601234 -0.223249 -1.073499 -8.064571 1.598566 -0.307459 -0.245263 -0.041399 -1.532960 0.000002 0.000000 0.000000 0.907647 0.026340 0.317664 3.457551 8.986409 3.795316 1.496964 0.039291 -0.038456 -0.391094 17.428541 1.090559 1.132326 0.559774 -0.444207 0.000001 0.000000 0.000001 -0.149559 0.286290 -0.912030 0.000003 0.000002 -0.000001 0.485181 -0.390159 0.265472 0.000002 0.000001 -0.000003 1.100885 -0.503888 -0.296242 -0.000000 0.000003 0.000001 -0.198937 -0.642069 -0.689888 0.000002 0.000000 -0.000000 0.636091 0.394674 0.001069 -0.000004 -0.000003 0.000003 
-0.002444 5.130539 -1.879967 -141.110451 4.439173 -11.280842 0.583813 0.718669 -0.323938 11.019871 -6.006990 3.776617 0.553245 0.216338 -1.020714 31.057178 29.911546 18.990777 -0.339279 0.080945 -1.465531 -0.000000 -0.000002 -0.000001 0.339136 -0.940503 -0.149914 59.401452 32.437962 -2.152501 0.601234 -0.223249 -1.073498 -8.202621 2.618543 -0.174613 -0.245262 -0.041399 -1.532960 0.000002 -0.000004 0.000001 0.907647 0.026340 0.317664 5.252182 9.318560 6.208707 1.496964 0.039292 -0.038456 0.124582 16.289226 -4.659203 1.132326 0.559775 -0.444207 0.000002 -0.000001 0.000001 -0.149559 0.286290 -0.912030 -0.000004 0.000000 0.000001 0.485181 -0.390159 0.265472 -0.000000 0.000003 0.000005 1.100885 -0.503887 -0.296241 0.000001 -0.000002 0.000002 -0.198937 -0.642069 -0.689888 0.000003 -0.000004 0.000002 0.636091 0.394674 0.001070 0.000004 -0.000001 -0.000000 
-0.004160 5.025845 -1.876531 -136.940744 4.409032 -12.243829 0.583813 0.718668 -0.323938 7.764276 -6.436098 4.027697 0.553245 0.216339 -1.020714 34.182880 34.219780 17.171452 -0.339279 0.080945 -1.465531 0.000000 -0.000002 -0.000000 0.339136 -0.940504 -0.149914 59.657010 32.869196 -2.141294 0.601234 -0.223249 -1.073499 -8.348645 3.641674 -0.035323 -0.245263 -0.041399 -1.532961 0.000002 -0.000003 0.000002 0.907647 0.026339 0.317665 7.164851 9.933324 8.726529 1.496964 0.039292 -0.038455 0.239470 15.320405 -10.072914 1.132326 0.559776 -0.444207 0.000000 -0.000000 -0.000001 -0.149559 0.286290 -0.912030 -0.000003 0.000005 0.000001 0.485181 -0.390159 0.265472 0.000006 0.000000 -0.000002 1.100885 -0.503886 -0.296241 -0.000003 0.000004 0.000002 -0.198937 -0.642069 -0.689888 -0.000001 0.000001 -0.000000 0.636091 0.394674 0.001069 -0.000001 -0.000002 0.000001 
-0.005977 4.920708 -1.872786 -132.777607 4.284794 -13.050103 0.583813 0.718669 -0.323938 4.651653 -6.893090 4.156630 0.553245 0.216339 -1.020714 37.517942 38.377955 14.835395 -0.339279 0.080945 -1.465530 -0.000000 0.000001 0.000002 0.339136 -0.940503 -0.149914 59.745762 33.018944 -2.136726 0.601234 -0.223249 -1.073498 -8.502779 4.662141 0.108801 -0.245263 -0.041399 -1.532960 0.000004 0.000000 0.000001 0.907647 0.026340 0.317664 9.099794 10.804840 11.234830 1.496964 0.039292 -0.038456 0.027441 14.568365 -15.087398 1.132326 0.559775 -0.444207 0.000004 0.000002 -0.000001 -0.149559 0.286291 -0.912031 -0.000000 0.000002 -0.000000 0.485181 -0.390159 0.265472 0.000000 0.000005 0.000002 1.100885 -0.503886 -0.296241 0.000001 0.000006 0.000003 -0.198937 -0.642069 -0.689888 0.000002 0.000003 0.000002 0.636091 0.394675 0.001068 -0.000001 -0.000003 0.000006 
